<svg width="18" height="18" viewBox="0 0 18 18" fill="none" xmlns="http://www.w3.org/2000/svg">
<path d="M13.5703 9.05273C14.332 9.61523 15.2607 10.4326 16.3564 11.5049C17.4521 12.5771 18 13.2422 18 13.5C18 13.8164 17.9092 14.083 17.7275 14.2998C17.5459 14.5166 17.2617 14.625 16.875 14.625H15.0117C14.6602 14.625 14.3438 14.4785 14.0625 14.1855C13.3594 13.4355 12.6387 12.7148 11.9004 12.0234C11.1621 11.332 10.5703 10.8398 10.125 10.5469V14.0625C10.125 14.2148 10.0693 14.3467 9.95801 14.458C9.84668 14.5693 9.71484 14.625 9.5625 14.625H7.3125C7.04297 14.625 6.65332 14.4199 6.14355 14.0098C5.63379 13.5996 5.08594 13.0547 4.5 12.375C3.65625 11.4023 2.69531 9.98438 1.61719 8.12109C0.539062 6.25781 0 5.05078 0 4.5C0 4.08984 0.0908203 3.7998 0.272461 3.62988C0.454102 3.45996 0.738281 3.375 1.125 3.375H2.98828C3.15234 3.375 3.3252 3.44531 3.50684 3.58594C3.68848 3.72656 3.82617 3.89062 3.91992 4.07812C3.94336 4.13672 4.06055 4.38574 4.27148 4.8252C4.48242 5.26465 4.61719 5.54297 4.67578 5.66016L5.04492 6.39844L5.47559 7.21582L5.87109 7.875L6.32812 8.56055L6.75 9.07031V3.9375C6.75 3.78516 6.80566 3.65332 6.91699 3.54199C7.02832 3.43066 7.16016 3.375 7.3125 3.375H9.5625C9.71484 3.375 9.84668 3.43066 9.95801 3.54199C10.0693 3.65332 10.125 3.78516 10.125 3.9375V7.94531C11.3203 7.13672 12.6328 5.75977 14.0625 3.81445C14.1562 3.69727 14.2939 3.59473 14.4756 3.50684C14.6572 3.41895 14.8359 3.375 15.0117 3.375H16.875C17.2852 3.375 17.5752 3.46875 17.7451 3.65625C17.915 3.84375 18 4.125 18 4.5C18 5.01562 17.5225 5.7334 16.5674 6.65332C15.6123 7.57324 14.6133 8.37305 13.5703 9.05273Z" fill="#2D7DFF"/>
</svg>
